<svg width="190" height="194" viewBox="0 0 190 194" fill="none" xmlns="http://www.w3.org/2000/svg">
<rect opacity="0.21" x="15.4492" y="162.931" width="15.4064" height="15.4064" fill="#B5B5B5"/>
<rect opacity="0.21" x="0.160156" y="178.127" width="15.4064" height="15.4064" fill="#E3E3E3"/>
<rect opacity="0.03" x="15.4492" y="148.075" width="15.4064" height="15.4064" fill="#AEAEAE"/>
<rect opacity="0.1" x="0.0429688" y="132.668" width="15.4064" height="15.4064" fill="#DBDBDB"/>
<rect opacity="0.02" x="30.8555" y="162.931" width="15.4064" height="15.4064" fill="#161616"/>
<rect opacity="0.2" x="46.2617" y="132.493" width="15.4064" height="15.4064" fill="#DEDEDE"/>
<g opacity="0.3">
<rect opacity="0.21" x="158.547" y="31.0998" width="15.4064" height="15.4064" fill="#B5B5B5"/>
<rect opacity="0.21" x="143.258" y="46.2957" width="15.4064" height="15.4064" fill="#E3E3E3"/>
<rect opacity="0.03" x="158.547" y="16.2436" width="15.4064" height="15.4064" fill="#AEAEAE"/>
<rect opacity="0.1" x="143.141" y="0.837219" width="15.4064" height="15.4064" fill="#DBDBDB"/>
<rect opacity="0.02" x="173.953" y="31.0998" width="15.4064" height="15.4064" fill="#161616"/>
<rect opacity="0.2" x="174.127" y="0.661926" width="15.4064" height="15.4064" fill="#161616"/>
</g>
<rect x="51.7606" y="76.0604" width="76.8734" height="119.394" rx="5.6338" transform="rotate(-15 51.7606 76.0604)" fill="#161616" stroke="white" stroke-width="2.25352"/>
<path d="M130.713 139.006C132.941 137.579 133.879 134.709 133.679 131.319C133.479 127.918 132.135 123.926 129.709 120.138C127.283 116.349 124.22 113.458 121.215 111.853C118.22 110.252 115.221 109.903 112.992 111.33C110.764 112.756 109.826 115.626 110.026 119.017C110.227 122.417 111.571 126.409 113.997 130.198C116.422 133.987 119.486 136.878 122.49 138.483C125.486 140.083 128.485 140.432 130.713 139.006Z" fill="black" stroke="white" stroke-width="0.56338"/>
<path d="M130.829 119.486C133.194 123.181 134.499 127.045 134.708 130.296C134.918 133.559 134.024 136.135 132.088 137.375C130.151 138.615 127.438 138.349 124.562 136.793C121.696 135.243 118.733 132.44 116.367 128.746C114.002 125.051 112.697 121.187 112.488 117.936C112.278 114.673 113.172 112.097 115.108 110.857C117.045 109.617 119.758 109.883 122.634 111.439C125.5 112.99 128.463 115.792 130.829 119.486Z" fill="#121212" stroke="white" stroke-width="0.56338"/>
<path d="M120.27 113.881L121.127 116.668" stroke="white" stroke-width="0.56338"/>
<path d="M127.348 131.034L128.205 133.821" stroke="white" stroke-width="0.56338"/>
<path d="M124.13 119.456C123.559 118.241 122.115 115.982 120.914 116.668C119.413 117.526 119.413 118.384 125.202 124.816C130.992 131.248 126.489 132.749 124.773 128.461" stroke="white" stroke-width="0.56338"/>
<path d="M92.4581 146.463C89.2215 147.482 86.7741 150.15 86.0379 153.462C85.3017 156.774 86.3885 160.228 88.8889 162.521C91.3893 164.815 94.9234 165.601 98.16 164.582C103.163 163.007 105.943 157.675 104.369 152.672C102.794 147.668 97.4615 144.889 92.4581 146.463Z" fill="#EB001B"/>
<path d="M95.7154 156.817C92.4786 157.835 90.031 160.503 89.2947 163.816C88.5584 167.128 89.6452 170.582 92.1458 172.875C94.6463 175.169 98.1806 175.955 101.417 174.936C104.654 173.917 107.102 171.249 107.838 167.937C108.574 164.625 107.488 161.171 104.987 158.877C102.486 156.584 98.9521 155.798 95.7154 156.817Z" fill="#F79E1B"/>
<path d="M98.1585 164.582C101.265 163.605 103.494 161.196 104.314 158.378C101.898 156.578 98.6915 155.88 95.7148 156.817C92.7382 157.754 90.3796 160.203 89.5597 163.021C91.8458 164.862 95.0524 165.56 98.1585 164.582Z" fill="#FF5F00"/>
<rect x="29.2896" y="5.18626" width="76.8734" height="119.394" rx="5.6338" transform="rotate(11.1262 29.2896 5.18626)" fill="#161616" stroke="white" stroke-width="2.25352"/>
<g clip-path="url(#clip0_1179_72411)">
<path d="M77.1456 112.082L76.5888 114.727L66.7803 110.936L67.3371 108.291L77.1456 112.082ZM65.9639 114.813L72.4188 118.805L70.8517 118.786L70.8523 118.786L66.0975 118.714C66.0975 118.714 65.1604 118.629 64.9189 119.776L64.0414 123.943L64.2031 124.028C64.2031 124.028 64.7366 122.81 65.9464 121.507L75.254 121.068L75.8341 118.312L66.5631 111.967L65.9639 114.813ZM80.4997 96.1528L81.011 93.7248L70.4085 93.7031L69.9609 95.8287C69.7542 96.8103 70.4608 97.2088 70.4608 97.2088L79.0303 103.132L79.6107 100.375L78.2181 99.5064L78.9259 96.1449L80.4997 96.1528ZM76.2944 98.306L72.7861 96.1163L76.7515 96.135L76.2944 98.306ZM71.3597 101.301L69.2581 100.464C69.2581 100.464 68.5701 101.535 68.3145 102.749C68.0382 104.061 67.9556 107.298 70.7444 107.885C73.3683 108.438 74.171 104.787 75.5492 105.078C76.9274 105.368 75.9897 108.596 74.8927 109.496L77.0904 110.369C77.0904 110.369 77.9125 109.309 78.2923 107.505C78.6723 105.701 78.3112 102.782 75.7682 102.247C73.1275 101.691 72.1046 105.329 70.9565 105.087C69.8082 104.845 70.4979 102.301 71.3597 101.301Z" fill="white"/>
<path d="M70.8506 118.786L66.0957 118.714C66.0957 118.714 65.1586 118.629 64.9171 119.776L64.0396 123.943L64.2013 124.028C64.2013 124.028 65.0382 122.113 66.9981 120.519C68.8716 118.995 70.8506 118.786 70.8506 118.786Z" fill="#E6A540"/>
</g>
<path d="M24.7433 86.71C27.4853 85.5652 29.0852 82.5709 29.5249 78.7686C29.9657 74.9557 29.2532 70.2614 27.2989 65.5806C25.3446 60.8998 22.5076 57.0924 19.4864 54.725C16.4737 52.3642 13.2195 51.3964 10.4776 52.5412C7.73561 53.686 6.13567 56.6804 5.69603 60.4826C5.25516 64.2955 5.96772 68.9899 7.92198 73.6706C9.87624 78.3514 12.7133 82.1588 15.7345 84.5262C18.7472 86.8871 22.0014 87.8548 24.7433 86.71Z" fill="white" stroke="#25282D" stroke-width="0.582274"/>
<path d="M28.659 65.1101C30.5675 69.6814 31.264 74.2349 30.8603 77.8945C30.4552 81.5656 28.9564 84.2661 26.5491 85.2711C24.1418 86.2762 21.1678 85.4432 18.2725 83.15C15.3864 80.8639 12.6382 77.167 10.7297 72.5958C8.82117 68.0245 8.12468 63.471 8.52845 59.8114C8.93349 56.1402 10.4323 53.4398 12.8396 52.4348C15.2469 51.4297 18.221 52.2626 21.1162 54.5559C24.0023 56.842 26.7505 60.5389 28.659 65.1101Z" fill="white" stroke="#25282D" stroke-width="0.582274"/>
<path d="M14.6211 55.6425L15.7585 59.339" stroke="black" stroke-width="0.582274"/>
<path d="M24.0059 78.3898L25.1432 82.0862" stroke="black" stroke-width="0.582274"/>
<path d="M19.741 63.0354C18.9827 61.4241 17.0682 58.4291 15.4759 59.339C13.4855 60.4763 13.4855 61.6137 21.1627 70.1439C28.8399 78.6741 22.8685 80.6645 20.5938 74.9777" stroke="black" stroke-width="0.582274"/>
<path d="M83.9934 31.8294C81.7488 30.8922 80.447 28.4448 80.0898 25.3553C79.7314 22.2556 80.3108 18.4425 81.8974 14.6425C83.4839 10.8426 85.7878 7.74952 88.244 5.82486C90.692 3.9066 93.3475 3.11138 95.5922 4.04854C97.8368 4.9857 99.1385 7.43312 99.4958 10.5226C99.8542 13.6224 99.2748 17.4354 97.6882 21.2354C96.1017 25.0353 93.7978 28.1284 91.3416 30.0531C88.8936 31.9713 86.2381 32.7666 83.9934 31.8294Z" fill="white" stroke="#25282D" stroke-width="0.56338"/>
<path d="M80.8784 14.2965C79.3338 17.9961 78.7711 21.6792 79.0974 24.6366C79.4249 27.6051 80.6352 29.7734 82.5641 30.5788C84.4931 31.3841 86.8859 30.7201 89.2269 28.8658C91.5593 27.0184 93.7826 24.0285 95.3272 20.3289C96.8718 16.6293 97.4345 12.9462 97.1082 9.98881C96.7807 7.02032 95.5705 4.85199 93.6415 4.04664C91.7126 3.24129 89.3198 3.90531 86.9787 5.75964C84.6464 7.60702 82.4231 10.5969 80.8784 14.2965Z" fill="white" stroke="#25282D" stroke-width="0.56338"/>
<path d="M92.2109 6.60468L91.289 9.60092" stroke="black" stroke-width="0.56338"/>
<path d="M84.6055 25.0432L83.6835 28.0394" stroke="black" stroke-width="0.56338"/>
<path d="M88.0636 12.5972C88.6782 11.2911 90.2301 8.86341 91.5208 9.60095C93.1341 10.5229 93.1341 11.4448 86.9112 18.3592C80.6882 25.2736 85.5285 26.887 87.3723 22.2774" stroke="black" stroke-width="0.56338"/>
<rect x="114.879" y="37.5112" width="10.0261" height="10.0261" transform="rotate(-20.0295 114.879 37.5112)" fill="#161616"/>
<defs>
<clipPath id="clip0_1179_72411">
<rect width="33.7287" height="12.6483" fill="white" transform="translate(63.1992 124.129) rotate(-78.1096)"/>
</clipPath>
</defs>
</svg>
