<svg xmlns="http://www.w3.org/2000/svg" width="1200" height="360" viewBox="0 0 1200 360" fill="none"><mask id="mask0" maskUnits="userSpaceOnUse" x="0" y="0" width="1200" height="360"><rect width="1200" height="360" rx="24" fill="white" fill-opacity="0.9"></rect></mask><g mask="url(#mask0)"><path d="M596.654 -22.837L755.173 -87.0786L725.714 98.9226L596.654 -22.837Z" stroke="#E5EBF0"></path><circle cx="726.049" cy="99.835" r="2.5" fill="#95E2C4" stroke="white"></circle><path d="M564 162.5L709.5 460.5L383.5 366.5L564 162.5Z" stroke="#E5EBF0"></path><circle r="3.5" transform="matrix(-1 0 0 1 564 163)" fill="#7095F4" stroke="white"></circle><path d="M1044.64 301.805L891.778 -11.2722L1234.27 87.4837L1044.64 301.805Z" stroke="#E5EBF0" stroke-width="1.0506"></path><circle r="3.70238" transform="matrix(1 0 0 -1 1045.69 300.229)" fill="#7095F4" stroke="white"></circle><path d="M-31.6768 -77.1519L15.0139 -137.677L273.541 149.384L-31.6768 -77.1519Z" stroke="#E5EBF0" stroke-width="1.72928"></path><circle cx="271.812" cy="146.79" r="4.3232" fill="#95E2C4" stroke="white" stroke-width="1.72928"></circle><circle cx="612" cy="255" r="32" fill="#F3F7F9"></circle><g clip-path="url(#clip0)"><path d="M633.557 260.374C630.588 272.285 618.521 279.526 606.626 276.556C594.715 273.587 587.474 261.52 590.444 249.626C593.413 237.715 605.463 230.474 617.375 233.444C629.269 236.395 636.527 248.463 633.557 260.374Z" fill="url(#paint0_linear)"></path><path d="M622.581 252.231C623.015 249.28 620.775 247.683 617.685 246.624L618.692 242.613L616.262 242.006L615.289 245.912C614.647 245.756 613.987 245.599 613.328 245.46L614.3 241.537L611.869 240.929L610.88 244.922C610.341 244.801 609.821 244.679 609.317 244.558V244.54L605.949 243.707L605.307 246.311C605.307 246.311 607.112 246.728 607.078 246.745C608.067 246.988 608.241 247.648 608.206 248.169L607.06 252.735C607.13 252.752 607.216 252.769 607.321 252.822C607.234 252.804 607.147 252.787 607.06 252.752L605.463 259.141C605.341 259.436 605.029 259.888 604.352 259.714C604.369 259.749 602.581 259.28 602.581 259.28L601.366 262.075L604.543 262.874C605.133 263.03 605.706 263.169 606.279 263.325L605.272 267.37L607.703 267.978L608.709 263.967C609.369 264.141 610.029 264.315 610.654 264.471L609.664 268.464L612.095 269.072L613.102 265.026C617.269 265.808 620.394 265.495 621.696 261.728C622.755 258.707 621.644 256.954 619.456 255.808C621.071 255.443 622.269 254.384 622.581 252.231ZM617.008 260.044C616.262 263.065 611.157 261.433 609.508 261.016L610.845 255.651C612.494 256.068 617.807 256.884 617.008 260.044ZM617.772 252.179C617.078 254.94 612.841 253.533 611.47 253.186L612.685 248.325C614.057 248.672 618.484 249.315 617.772 252.179Z" fill="white"></path></g><circle cx="852" cy="308" r="28" fill="#F3F7F9"></circle><g clip-path="url(#clip1)"><path d="M860.765 304.997C861.234 304.997 861.614 304.617 861.614 304.148C861.614 303.679 861.234 303.299 860.765 303.299C860.296 303.299 859.916 303.679 859.916 304.148C859.916 304.617 860.296 304.997 860.765 304.997Z" fill="#262761"></path><path d="M852.03 290.5C842.325 290.5 834.5 298.325 834.5 308.03C834.5 317.736 842.325 325.561 852.03 325.561C861.736 325.561 869.561 317.736 869.561 308.03C869.561 298.325 861.675 290.5 852.03 290.5ZM859.977 315.309C857.914 317.614 854.942 318.888 851.909 318.888C848.815 318.888 845.843 317.554 843.781 315.249C841.658 312.883 840.748 309.911 841.051 306.756C841.597 301.722 845.601 297.718 850.635 297.112C851.06 297.051 851.484 297.051 851.909 297.051C854.335 297.051 856.64 297.84 858.581 299.356C858.703 299.417 858.763 299.599 858.763 299.72C858.763 299.902 858.703 300.023 858.581 300.145L857.429 301.176C857.308 301.297 857.126 301.358 856.944 301.358C856.822 301.358 856.64 301.297 856.58 301.237C855.185 300.266 853.547 299.781 851.909 299.781C849.543 299.781 847.299 300.812 845.782 302.571C844.205 304.33 843.477 306.635 843.781 309.001C844.205 312.762 847.238 315.795 850.999 316.219C851.302 316.28 851.606 316.28 851.97 316.28C854.153 316.28 856.216 315.431 857.793 313.854C857.914 313.732 858.096 313.672 858.278 313.672C858.399 313.672 858.521 313.732 858.642 313.793L859.916 314.642C860.037 314.703 860.098 314.824 860.159 315.006C860.098 315.067 860.037 315.188 859.977 315.309ZM860.765 306.817C859.309 306.817 858.096 305.604 858.096 304.148C858.096 302.692 859.309 301.479 860.765 301.479C862.221 301.479 863.434 302.692 863.434 304.148C863.434 305.604 862.221 306.817 860.765 306.817Z" fill="#262761"></path></g><circle cx="1143" cy="56" r="24" fill="#F3F7F9"></circle><g clip-path="url(#clip2)"><path d="M1142.85 42.2856L1142.66 42.9105V61.0428L1142.85 61.2264L1151.26 56.2512L1142.85 42.2856Z" fill="#343434"></path><path d="M1142.85 42.2856L1134.43 56.2512L1142.85 61.2264V52.4255V42.2856Z" fill="#8C8C8C"></path><path d="M1142.85 62.8198L1142.74 62.9461V69.4053L1142.85 69.7078L1151.27 57.8472L1142.85 62.8198Z" fill="#3C3C3B"></path><path d="M1142.85 69.7079V62.8198L1134.43 57.8472L1142.85 69.7079Z" fill="#8C8C8C"></path><path d="M1142.85 61.2265L1151.26 56.2514L1142.85 52.4258V61.2265Z" fill="#141414"></path><path d="M1134.43 56.251L1142.85 61.2261V52.4253L1134.43 56.251Z" fill="#393939"></path></g><circle cx="182" cy="313" r="25" fill="#F3F7F9"></circle><g clip-path="url(#clip3)"><path fill-rule="evenodd" clip-rule="evenodd" d="M171.514 300.638L165.619 313.021C165.597 313.067 165.589 313.119 165.599 313.169C165.608 313.22 165.633 313.266 165.67 313.301L181.592 328.557C181.637 328.601 181.697 328.625 181.76 328.625C181.823 328.625 181.883 328.601 181.928 328.557L197.849 313.302C197.887 313.267 197.912 313.221 197.921 313.17C197.93 313.12 197.923 313.068 197.901 313.022L192.006 300.639C191.987 300.597 191.956 300.562 191.917 300.538C191.879 300.513 191.834 300.5 191.788 300.5H171.733C171.687 300.499 171.642 300.512 171.603 300.537C171.564 300.561 171.533 300.596 171.514 300.638Z" fill="#50AF95"></path><path fill-rule="evenodd" clip-rule="evenodd" d="M183.805 314.293C183.69 314.301 183.1 314.336 181.783 314.336C180.735 314.336 179.991 314.305 179.73 314.293C175.681 314.114 172.658 313.41 172.658 312.566C172.658 311.722 175.681 311.018 179.73 310.837V313.591C179.995 313.61 180.753 313.654 181.801 313.654C183.058 313.654 183.688 313.602 183.801 313.591V310.839C187.842 311.019 190.857 311.724 190.857 312.566C190.857 313.408 187.843 314.112 183.801 314.292L183.805 314.293ZM183.805 310.554V308.09H189.444V304.332H174.091V308.09H179.729V310.553C175.146 310.763 171.7 311.671 171.7 312.759C171.7 313.847 175.146 314.754 179.729 314.965V322.861H183.804V314.962C188.376 314.752 191.816 313.845 191.816 312.758C191.816 311.671 188.379 310.764 183.804 310.553L183.805 310.554Z" fill="white"></path></g><circle cx="739" cy="51" r="25" fill="#F3F7F9"></circle><g clip-path="url(#clip4)"><path d="M738.953 35.4409L742.796 39.377L733.118 49.0553L729.274 45.2117L738.953 35.4409Z" fill="#F0B90B" stroke="#F0B90B"></path><path d="M744.787 41.2759L748.631 45.212L733.118 60.7249L729.274 56.8814L744.787 41.2759Z" fill="#F0B90B" stroke="#F0B90B"></path><path d="M727.283 47.1104L731.127 51.0465L727.283 54.89L723.44 51.0465L727.283 47.1104Z" fill="#F0B90B" stroke="#F0B90B"></path><path d="M750.622 47.1104L754.466 51.0465L738.953 66.5594L735.109 62.7159L750.622 47.1104Z" fill="#F0B90B" stroke="#F0B90B"></path></g><circle cx="56" cy="51" r="24" fill="#F3F7F9"></circle><g clip-path="url(#clip5)"><path d="M56.5205 39C51.5077 39.0201 47.4488 43.0789 47.4287 48.0918C47.4287 49.0957 47.5908 50.0929 47.9081 51.0451C48.145 51.6932 48.8478 52.0423 49.5075 51.8419C50.1451 51.5974 50.4836 50.9003 50.2803 50.2483C50.0109 49.5061 49.891 48.7189 49.9265 47.9307C50.0358 44.3101 53.0591 41.4633 56.6797 41.5726C60.3003 41.6819 63.1471 44.7052 63.0378 48.3258C62.9352 51.7153 60.2658 54.4682 56.8801 54.6743C56.8801 54.6743 55.6039 54.752 54.9691 54.8296C54.7351 54.8632 54.5031 54.9092 54.2739 54.9677C54.2413 55.0013 54.1886 55.0013 54.155 54.9687L54.1541 54.9677C54.1311 54.938 54.1311 54.8958 54.1541 54.8661L54.3516 53.7883L55.5502 48.3977C55.694 47.7246 55.2654 47.062 54.5923 46.9182C53.9192 46.7744 53.2566 47.203 53.1128 47.8761C53.1128 47.8761 50.2621 61.0708 50.2621 61.1906C50.0991 61.8321 50.4865 62.4841 51.128 62.6471C51.1347 62.6491 51.1423 62.651 51.149 62.6519H51.2152C51.8557 62.8178 52.5097 62.4324 52.6746 61.7918C52.6775 61.7813 52.6803 61.7708 52.6822 61.7592C52.6803 61.7391 52.6803 61.719 52.6822 61.6998C52.7177 61.5445 53.0773 59.7888 53.0773 59.7888C53.3496 58.4637 54.4178 57.4483 55.7544 57.2431C56.0296 57.2009 57.186 57.1232 57.186 57.1232C62.1796 56.6256 65.8242 52.1736 65.3256 47.1799C64.8711 42.6254 61.0981 39.1189 56.5205 39Z" fill="#1E1E1E"></path><path d="M57.0721 59.9633C56.2522 59.7926 55.4506 60.319 55.2799 61.1379C55.278 61.1456 55.2771 61.1532 55.2752 61.1609C55.0978 61.975 55.6136 62.7794 56.4287 62.9568C56.4296 62.9568 56.4306 62.9568 56.4315 62.9578H56.4737C57.2715 63.1505 58.0741 62.6596 58.2659 61.8628C58.2678 61.857 58.2687 61.8503 58.2706 61.8446V61.7611C58.4116 60.9384 57.8861 60.1493 57.0721 59.9633Z" fill="#E6007A"></path></g><circle cx="442" cy="41" r="25" fill="#F3F7F9"></circle><g clip-path="url(#clip6)"><path d="M445.894 30.2856H436.285L435.488 34.7379L444.162 34.7482C448.434 34.7482 449.694 36.3009 449.658 38.8715C449.637 40.1876 449.066 42.4189 448.82 43.1438C448.161 45.0718 446.809 47.2671 441.74 47.2619L433.308 47.2568L432.514 51.7142H442.103C445.485 51.7142 446.92 51.3183 448.447 50.6191C451.825 49.0511 453.835 45.7196 454.642 41.3701C455.837 34.8922 454.346 30.2856 445.894 30.2856Z" fill="#008DE4"></path><path d="M432.139 38.7637C429.62 38.7637 429.26 40.4037 429.023 41.396C428.71 42.6916 428.607 43.2211 428.607 43.2211H438.447C440.966 43.2211 441.326 41.5811 441.563 40.5888C441.876 39.2932 441.979 38.7637 441.979 38.7637H432.139Z" fill="#008DE4"></path></g><circle cx="1088" cy="256" r="24" fill="#F3F7F9"></circle><g clip-path="url(#clip7)"><path d="M1088 270.863C1096.21 270.863 1102.86 264.208 1102.86 256C1102.86 247.792 1096.21 241.137 1088 241.137C1079.79 241.137 1073.14 247.792 1073.14 256C1073.14 264.208 1079.79 270.863 1088 270.863Z" fill="#F3F7F9"></path><path d="M1088 239.333C1084.7 239.333 1081.48 240.311 1078.74 242.142C1076 243.974 1073.86 246.577 1072.6 249.622C1071.34 252.668 1071.01 256.019 1071.65 259.252C1072.3 262.485 1073.88 265.454 1076.22 267.785C1078.55 270.116 1081.52 271.703 1084.75 272.347C1087.98 272.99 1091.33 272.66 1094.38 271.398C1097.42 270.137 1100.03 268 1101.86 265.26C1103.69 262.519 1104.67 259.297 1104.67 256C1104.67 253.818 1104.25 251.656 1103.42 249.637C1102.59 247.618 1101.37 245.783 1099.83 244.235C1098.3 242.687 1096.47 241.458 1094.45 240.617C1092.44 239.776 1090.28 239.34 1088.1 239.333H1088ZM1088.28 256.565L1086.55 262.417H1095.83C1095.89 262.414 1095.95 262.424 1096.01 262.446C1096.07 262.468 1096.12 262.5 1096.16 262.542C1096.21 262.584 1096.25 262.635 1096.27 262.691C1096.3 262.747 1096.31 262.807 1096.31 262.869V263.022L1095.51 265.806C1095.47 265.938 1095.39 266.054 1095.28 266.134C1095.17 266.215 1095.04 266.256 1094.9 266.25H1080.7L1083.08 258.139L1080.41 258.946L1081.02 257.09L1083.68 256.283L1087.03 244.903C1087.07 244.772 1087.15 244.657 1087.26 244.576C1087.37 244.496 1087.5 244.454 1087.64 244.459H1091.23C1091.29 244.456 1091.35 244.466 1091.41 244.488C1091.47 244.51 1091.52 244.542 1091.56 244.584C1091.61 244.626 1091.65 244.677 1091.67 244.733C1091.7 244.789 1091.71 244.849 1091.71 244.911V245.064L1088.89 254.668L1091.55 253.861L1090.99 255.798L1088.28 256.565Z" fill="#345D9D"></path></g></g><defs><linearGradient id="paint0_linear" x1="611.988" y1="232.767" x2="611.988" y2="277.218" gradientUnits="userSpaceOnUse"><stop stop-color="#F9AA4B"></stop><stop offset="1" stop-color="#F7931A"></stop></linearGradient><clipPath id="clip0"><rect width="44.4444" height="44.4444" fill="white" transform="translate(589.778 232.778)"></rect></clipPath><clipPath id="clip1"><rect width="35" height="35" fill="white" transform="translate(834.5 290.5)"></rect></clipPath><clipPath id="clip2"><rect width="16.8386" height="27.4286" fill="white" transform="translate(1134.43 42.2856)"></rect></clipPath><clipPath id="clip3"><rect width="32.3313" height="28.125" fill="white" transform="translate(165.594 300.5)"></rect></clipPath><clipPath id="clip4"><rect width="31.1565" height="31.25" fill="white" transform="translate(723.375 35.375)"></rect></clipPath><clipPath id="clip5"><rect width="17.9429" height="24" fill="white" transform="translate(47.4287 39)"></rect></clipPath><clipPath id="clip6"><rect width="26.395" height="21.4286" fill="white" transform="translate(428.607 30.2856)"></rect></clipPath><clipPath id="clip7"><rect width="33.3333" height="33.3333" fill="white" transform="translate(1071.33 239.333)"></rect></clipPath></defs></svg>