<svg width="72" height="72" viewBox="0 0 72 72" fill="none" xmlns="http://www.w3.org/2000/svg">
<rect width="72" height="72" fill="#121212"/>
<circle cx="36.0016" cy="36.0019" r="31.95" stroke="white" stroke-width="0.9"/>
<mask id="mask0_1195_68248" style="mask-type:alpha" maskUnits="userSpaceOnUse" x="3" y="3" width="66" height="66">
<circle cx="36.0035" cy="36.0019" r="31.95" fill="#0057FF" stroke="white" stroke-width="0.9"/>
</mask>
<g mask="url(#mask0_1195_68248)">
<rect opacity="0.21" x="43.2051" y="18.9019" width="14.4" height="14.4" fill="#B5B5B5"/>
<rect opacity="0.21" x="28.9434" y="4.42468" width="14.5383" height="14.5383" fill="#575757"/>
<rect opacity="0.21" x="14.5156" y="18.7644" width="14.5383" height="14.5383" fill="#616161"/>
<rect opacity="0.03" x="28.9434" y="-9.59448" width="14.5383" height="14.5383" fill="#AEAEAE"/>
<path d="M36.5999 39.7655L36.9484 39.0957L36.1966 39.1107L30.988 39.2145C30.8569 39.2171 30.7 39.1377 30.581 38.9249C30.4632 38.7143 30.4174 38.4213 30.5005 38.1328L30.5005 38.1328L35.4966 20.7812L35.4966 20.7812C35.5353 20.647 35.5965 20.5382 35.6663 20.4589C35.6818 20.4546 35.7005 20.4496 35.7229 20.4439C35.8215 20.419 35.9615 20.389 36.1339 20.3553C36.4771 20.2882 36.9257 20.2114 37.3792 20.1384C37.832 20.0654 38.2859 19.9969 38.6384 19.9464C38.8147 19.9212 38.9645 19.9006 39.0755 19.8863C39.161 19.8753 39.2094 19.87 39.2299 19.8677C39.2321 19.8675 39.2341 19.8673 39.2357 19.8671L44.6709 20.1243L44.686 20.1251L44.7011 20.1248C44.8337 20.1221 44.9929 20.2036 45.112 20.4218C45.2298 20.6375 45.2722 20.9356 45.1829 21.2247L45.1829 21.2247L42.2671 30.6763L42.0847 31.2675L42.7016 31.2552L48.3747 31.1421C48.5358 31.1389 48.7277 31.2565 48.8392 31.558C48.9475 31.8511 48.9259 32.2054 48.7504 32.4699L35.054 51.8729L35.0539 51.8729L35.048 51.8817C34.5444 52.6317 33.8357 52.6757 32.7625 52.7423C32.7298 52.7443 32.6968 52.7464 32.6635 52.7484C32.138 52.7814 31.235 52.8107 30.4566 52.8319C30.2174 52.8384 29.9908 52.8441 29.7919 52.8489L36.5999 39.7655Z" fill="#161616" stroke="white" stroke-width="0.9"/>
<path d="M30.6574 39.3247L25.9569 39.4184C25.3432 39.4306 24.9108 38.5748 25.1208 37.7642L29.6122 20.4227C29.673 20.1881 29.783 19.985 29.9277 19.8404C30.0724 19.6958 30.2449 19.6164 30.4224 19.6128L38.3041 19.4557C38.926 19.4433 39.3592 20.3213 39.1329 21.1364L36.5109 30.5821L41.6308 30.48C42.3837 30.465 42.7984 31.7057 42.3101 32.5116L29.9668 52.8847C29.3668 53.8752 28.655 53.4051 29.0504 51.4318L30.6574 39.3247Z" fill="white"/>
</g>
</svg>
