<svg width="251" height="45" viewBox="0 0 251 45" fill="none" xmlns="http://www.w3.org/2000/svg">
<path d="M0.539978 44V1.28H12.54V44H0.539978Z" fill="url(#paint0_linear_13_2)" fill-opacity="0.56"/>
<path d="M19.6415 44V1.28H28.0415L31.6415 10.28V44H19.6415ZM49.0415 44L24.2615 12.86L28.0415 1.28L52.8215 32.42L49.0415 44ZM49.0415 44L46.0415 34.52V1.28H58.0415V44H49.0415Z" fill="url(#paint1_linear_13_2)" fill-opacity="0.56"/>
<path d="M77.6503 44L61.9903 1.28H74.7103L86.2903 35.78H80.6503L92.4103 1.28H104.95L89.0503 44H77.6503Z" fill="url(#paint2_linear_13_2)" fill-opacity="0.56"/>
<path d="M128.769 44.84C125.409 44.84 122.309 44.28 119.469 43.16C116.669 42.04 114.209 40.48 112.089 38.48C110.009 36.48 108.389 34.12 107.229 31.4C106.069 28.68 105.489 25.74 105.489 22.58C105.489 19.38 106.049 16.44 107.169 13.76C108.329 11.08 109.949 8.74 112.029 6.74C114.109 4.74 116.549 3.2 119.349 2.12C122.189 1 125.289 0.440002 128.649 0.440002C132.009 0.440002 135.089 1 137.889 2.12C140.729 3.2 143.189 4.74 145.269 6.74C147.349 8.74 148.949 11.1 150.069 13.82C151.229 16.5 151.809 19.44 151.809 22.64C151.809 25.8 151.229 28.74 150.069 31.46C148.949 34.14 147.349 36.5 145.269 38.54C143.189 40.54 140.749 42.1 137.949 43.22C135.149 44.3 132.089 44.84 128.769 44.84ZM128.649 34.28C130.889 34.28 132.829 33.8 134.469 32.84C136.109 31.88 137.369 30.52 138.249 28.76C139.129 27 139.569 24.94 139.569 22.58C139.569 20.82 139.309 19.24 138.789 17.84C138.309 16.4 137.589 15.18 136.629 14.18C135.669 13.14 134.509 12.36 133.149 11.84C131.829 11.28 130.329 11 128.649 11C126.409 11 124.469 11.48 122.829 12.44C121.189 13.36 119.929 14.7 119.049 16.46C118.169 18.18 117.729 20.22 117.729 22.58C117.729 24.38 117.969 26 118.449 27.44C118.969 28.88 119.709 30.12 120.669 31.16C121.629 32.16 122.769 32.94 124.089 33.5C125.449 34.02 126.969 34.28 128.649 34.28Z" fill="url(#paint3_linear_13_2)" fill-opacity="0.56"/>
<path d="M156.751 44V1.28H168.751V44H156.751Z" fill="url(#paint4_linear_13_2)" fill-opacity="0.56"/>
<path d="M196.972 44.72C193.692 44.72 190.632 44.18 187.792 43.1C184.992 41.98 182.532 40.42 180.412 38.42C178.292 36.42 176.632 34.08 175.432 31.4C174.272 28.68 173.692 25.74 173.692 22.58C173.692 19.38 174.272 16.44 175.432 13.76C176.632 11.08 178.272 8.76 180.352 6.8C182.472 4.84 184.932 3.32 187.732 2.24C190.532 1.12 193.572 0.560001 196.852 0.560001C200.172 0.560001 203.212 1.08 205.972 2.12C208.732 3.16 211.132 4.6 213.172 6.44L205.192 14.48C204.232 13.44 203.052 12.62 201.652 12.02C200.292 11.42 198.692 11.12 196.852 11.12C195.252 11.12 193.772 11.38 192.412 11.9C191.092 12.42 189.952 13.18 188.992 14.18C188.032 15.18 187.272 16.4 186.712 17.84C186.192 19.24 185.932 20.82 185.932 22.58C185.932 24.38 186.192 26 186.712 27.44C187.272 28.84 188.032 30.04 188.992 31.04C189.952 32.04 191.092 32.82 192.412 33.38C193.772 33.9 195.252 34.16 196.852 34.16C198.652 34.16 200.252 33.88 201.652 33.32C203.092 32.76 204.332 31.94 205.372 30.86L213.412 38.9C211.292 40.74 208.912 42.18 206.272 43.22C203.632 44.22 200.532 44.72 196.972 44.72Z" fill="url(#paint5_linear_13_2)" fill-opacity="0.56"/>
<path d="M217.571 44V1.28H229.571V44H217.571ZM227.291 44V34.04H250.211V44H227.291ZM227.291 27.08V17.36H247.991V27.08H227.291ZM227.291 11.24V1.28H249.851V11.24H227.291Z" fill="url(#paint6_linear_13_2)" fill-opacity="0.56"/>
<defs>
<linearGradient id="paint0_linear_13_2" x1="0.149891" y1="2.99999" x2="247.952" y2="53.7226" gradientUnits="userSpaceOnUse">
<stop stop-color="#1B1B1B" stop-opacity="0"/>
<stop offset="1" stop-color="#FDC886"/>
</linearGradient>
<linearGradient id="paint1_linear_13_2" x1="0.149891" y1="2.99999" x2="247.952" y2="53.7226" gradientUnits="userSpaceOnUse">
<stop stop-color="#1B1B1B" stop-opacity="0"/>
<stop offset="1" stop-color="#FDC886"/>
</linearGradient>
<linearGradient id="paint2_linear_13_2" x1="0.149891" y1="2.99999" x2="247.952" y2="53.7226" gradientUnits="userSpaceOnUse">
<stop stop-color="#1B1B1B" stop-opacity="0"/>
<stop offset="1" stop-color="#FDC886"/>
</linearGradient>
<linearGradient id="paint3_linear_13_2" x1="0.149891" y1="2.99999" x2="247.952" y2="53.7226" gradientUnits="userSpaceOnUse">
<stop stop-color="#1B1B1B" stop-opacity="0"/>
<stop offset="1" stop-color="#FDC886"/>
</linearGradient>
<linearGradient id="paint4_linear_13_2" x1="0.149891" y1="2.99999" x2="247.952" y2="53.7226" gradientUnits="userSpaceOnUse">
<stop stop-color="#1B1B1B" stop-opacity="0"/>
<stop offset="1" stop-color="#FDC886"/>
</linearGradient>
<linearGradient id="paint5_linear_13_2" x1="0.149891" y1="2.99999" x2="247.952" y2="53.7226" gradientUnits="userSpaceOnUse">
<stop stop-color="#1B1B1B" stop-opacity="0"/>
<stop offset="1" stop-color="#FDC886"/>
</linearGradient>
<linearGradient id="paint6_linear_13_2" x1="0.149891" y1="2.99999" x2="247.952" y2="53.7226" gradientUnits="userSpaceOnUse">
<stop stop-color="#1B1B1B" stop-opacity="0"/>
<stop offset="1" stop-color="#FDC886"/>
</linearGradient>
</defs>
</svg>
