<svg width="29" height="28" viewBox="0 0 29 28" fill="none" xmlns="http://www.w3.org/2000/svg">
<path d="M0.810547 8C0.810547 5.19974 0.810547 3.79961 1.35551 2.73005C1.83488 1.78924 2.59978 1.02433 3.54059 0.544967C4.61015 0 6.01028 0 8.81055 0H20.8105C23.6108 0 25.0109 0 26.0805 0.544967C27.0213 1.02433 27.7862 1.78924 28.2656 2.73005C28.8105 3.79961 28.8105 5.19974 28.8105 8V20C28.8105 22.8003 28.8105 24.2004 28.2656 25.27C27.7862 26.2108 27.0213 26.9757 26.0805 27.455C25.0109 28 23.6108 28 20.8105 28H8.81055C6.01028 28 4.61015 28 3.54059 27.455C2.59978 26.9757 1.83488 26.2108 1.35551 25.27C0.810547 24.2004 0.810547 22.8003 0.810547 20V8Z" fill="white"/>
<path d="M0.810547 13.576C0.810547 16.7589 2.5086 19.7 5.26508 21.2915C8.02155 22.8829 11.4177 22.8829 14.1741 21.2915C16.9306 19.7 18.6287 16.7589 18.6287 13.576C18.6287 8.65565 14.6399 4.66693 9.71961 4.66693C4.79927 4.66693 0.810547 8.65565 0.810547 13.576Z" fill="#EB001B"/>
<path d="M10.9932 13.5762C10.993 16.7592 12.691 19.7005 15.4475 21.2921C18.2041 22.8837 21.6004 22.8837 24.3569 21.2921C27.1134 19.7005 28.8115 16.7592 28.8113 13.5762C28.8115 10.3932 27.1134 7.45186 24.3569 5.8603C21.6004 4.26873 18.2041 4.26873 15.4475 5.8603C12.691 7.45186 10.993 10.3932 10.9932 13.5762Z" fill="#F79E1B"/>
<path d="M18.6295 13.5762C18.6295 10.5216 17.1022 7.84892 14.8113 6.32166C12.5204 7.9762 10.9932 10.6489 10.9932 13.5762C10.9932 16.5034 12.5204 19.3034 14.8113 20.8307C17.1022 19.3034 18.6295 16.6307 18.6295 13.5762Z" fill="#FF5F00"/>
</svg>
