<svg width="55" height="28" viewBox="0 0 55 28" fill="none" xmlns="http://www.w3.org/2000/svg">
<path d="M21.635 20.8994H18.0447L20.2885 7.10914H23.8792L21.635 20.8994ZM15.0243 7.10914L11.6014 16.5942L11.1964 14.5517L11.1968 14.5524L9.98868 8.3508C9.98868 8.3508 9.84261 7.10914 8.28556 7.10914H2.62695L2.56055 7.34265C2.56055 7.34265 4.29096 7.70267 6.31611 8.91887L9.43536 20.8998H13.1762L18.8883 7.10914H15.0243ZM43.2639 20.8994H46.5605L43.6862 7.10878H40.8001C39.4674 7.10878 39.1427 8.13648 39.1427 8.13648L33.7881 20.8994H37.5307L38.2792 18.851H42.8433L43.2639 20.8994ZM39.3132 16.0213L41.1996 10.8607L42.2609 16.0213H39.3132ZM34.0688 10.4254L34.5812 7.46401C34.5812 7.46401 33.0002 6.86273 31.352 6.86273C29.5703 6.86273 25.3393 7.64144 25.3393 11.428C25.3393 14.9907 30.3051 15.0349 30.3051 16.9062C30.3051 18.7776 25.8509 18.4423 24.3809 17.2622L23.8471 20.3586C23.8471 20.3586 25.4503 21.1373 27.8996 21.1373C30.3497 21.1373 34.0459 19.8687 34.0459 16.416C34.0459 12.8305 29.0354 12.4966 29.0354 10.9378C29.0358 9.3785 32.5324 9.5788 34.0688 10.4254Z" fill="#2566AF"/>
<path d="M11.1968 14.5521L9.98874 8.35048C9.98874 8.35048 9.84267 7.10883 8.28561 7.10883H2.62695L2.56055 7.34233C2.56055 7.34233 5.28032 7.90598 7.88906 10.0178C10.3834 12.0363 11.1968 14.5521 11.1968 14.5521Z" fill="#E6A540"/>
</svg>
